<svg width="512" height="512" viewBox="0 0 512 512" xmlns="http://www.w3.org/2000/svg" role="img" aria-label="Chat Summarizer Icon">
  <defs>
    <linearGradient id="g" x1="0" y1="0" x2="1" y2="1">
      <stop offset="0%" stop-color="#1abc9c"/>
      <stop offset="100%" stop-color="#16a085"/>
    </linearGradient>
    <filter id="s" x="-20%" y="-20%" width="140%" height="140%">
      <feOffset dy="6" in="SourceAlpha" result="o"/>
      <feGaussianBlur in="o" stdDeviation="8" result="b"/>
      <feColorMatrix in="b" type="matrix" values="0 0 0 0 0  0 0 0 0 0  0 0 0 0 0  0 0 0 .25 0"/>
      <feMerge>
        <feMergeNode/>
        <feMergeNode in="SourceGraphic"/>
      </feMerge>
    </filter>
  </defs>

  <!-- Background card -->
  <rect x="40" y="40" width="432" height="432" rx="48" fill="url(#g)" filter="url(#s)"/>

  <!-- Chat bubble -->
  <g transform="translate(96 116)">
    <rect x="0" y="0" width="320" height="220" rx="28" fill="#ffffff" opacity="0.98"/>
    <path d="M110 220 l-26 42 c-4 6 2 14 9 12 l64 -18" fill="#ffffff"/>

    <!-- Summary lines -->
    <rect x="28" y="32" width="200" height="18" rx="9" fill="#2e7d32" opacity="0.9"/>
    <rect x="28" y="64" width="264" height="14" rx="7" fill="#43a047" opacity="0.9"/>
    <rect x="28" y="92" width="244" height="14" rx="7" fill="#43a047" opacity="0.8"/>
    <rect x="28" y="120" width="212" height="14" rx="7" fill="#43a047" opacity="0.7"/>

    <!-- Bullet list -->
    <circle cx="32" cy="166" r="6" fill="#2e7d32"/>
    <rect x="48" y="158" width="192" height="12" rx="6" fill="#2e7d32"/>
    <circle cx="32" cy="192" r="6" fill="#2e7d32"/>
    <rect x="48" y="184" width="156" height="12" rx="6" fill="#2e7d32"/>
  </g>

  <!-- Sparkle (AI magic) -->
  <g transform="translate(360 84)">
    <circle cx="0" cy="0" r="8" fill="#ffffff" opacity="0.95"/>
    <path d="M0 -24 L4 -4 L24 0 L4 4 L0 24 L-4 4 L-24 0 L-4 -4 Z" fill="#ffffff" opacity="0.95"/>
  </g>

  <!-- Badge TL;DR -->
  <g transform="translate(320 340)">
    <rect x="-90" y="-28" width="160" height="56" rx="14" fill="#004d40" opacity="0.9"/>
    <text x="-10" y="8" font-family="Inter,Segoe UI,system-ui,sans-serif" font-weight="700" font-size="28" text-anchor="middle" fill="#ffffff">TL;DR</text>
  </g>
</svg>
